<svg xmlns="http://www.w3.org/2000/svg" viewBox="0 0 48 48"><path fill="#fff" fill-rule="evenodd" d="M20.84 38.45c-.22 1.38-.65 2.58-1.33 3.55h-5.89l1.28-2.55a.99.99 0 0 0-.45-1.34.99.99 0 0 0-1.34.45L12 40.77l-1.11-2.21a1.01 1.01 0 0 0-1.34-.45c-.49.25-.69.85-.45 1.34L10.38 42H5c-.55 0-1 .45-1 1s.45 1 1 1h35c.55 0 1-.45 1-1s-.45-1-1-1h-2.38l1.28-2.55a.99.99 0 0 0-.45-1.34.99.99 0 0 0-1.34.45L36 40.77l-1.11-2.21a1.01 1.01 0 0 0-1.34-.45c-.49.25-.69.85-.45 1.34L34.38 42h-5.89c-.68-.97-1.11-2.16-1.33-3.55 1.19.34 2.46.54 3.83.55.37 0 .71-.2.89-.52a.98.98 0 0 0-.05-1.03l-.9-1.35c1.21-.08 2.42-.45 3.63-1.27.32-.21.48-.59.43-.97s-.31-.69-.68-.81c-.34-.11-.67-.24-.99-.4 1.22-.34 2.35-.95 3.37-1.93.27-.26.37-.64.27-1a1 1 0 0 0-.77-.7c-1.3-.26-2.53-.7-3.68-1.38.98-.38 1.78-1.08 2.37-2.16a.98.98 0 0 0 0-.94c-.16-.3-.45-.49-.79-.53-.94-.09-1.84-.32-2.68-.69.9-.39 1.69-.92 2.33-1.66a1 1 0 0 0-.41-1.59c-1.22-.45-2.29-1.16-3.24-2.09.89-.16 1.74-.53 2.54-1.2a1.008 1.008 0 0 0-.11-1.61c-1.15-.74-2.26-1.55-3.32-2.45.61-.22 1.14-.57 1.55-1.07a.99.99 0 0 0-.2-1.45c-2.18-1.49-4.11-3.38-5.74-5.74a.997.997 0 0 0-1.64 0 21.9 21.9 0 0 1-5.74 5.74c-.23.16-.38.41-.42.68-.04.28.04.56.22.77.41.5.93.85 1.55 1.07-1.06.91-2.17 1.71-3.32 2.45-.27.17-.44.46-.46.78s.11.62.35.83c.8.67 1.65 1.04 2.54 1.2-.94.94-2.01 1.65-3.23 2.09a1.003 1.003 0 0 0-.41 1.59c.64.74 1.44 1.27 2.33 1.66-.84.37-1.73.6-2.68.69a1.006 1.006 0 0 0-.79 1.47c.59 1.08 1.39 1.77 2.37 2.16-1.15.68-2.38 1.13-3.68 1.38a1 1 0 0 0-.77.7c-.1.36 0 .74.27 1a7.8 7.8 0 0 0 3.36 1.93c-.32.16-.65.29-.98.4-.36.12-.62.43-.68.81-.05.38.11.75.43.97 1.21.82 2.41 1.19 3.63 1.27l-.9 1.35c-.21.31-.22.7-.05 1.03.18.33.52.53.89.52 1.37-.01 2.64-.21 3.83-.55ZM43 42c.55 0 1 .45 1 1s-.45 1-1 1-1-.45-1-1 .45-1 1-1m-17.95-4.33c-.36-.16-.7-.34-1.05-.52-.34.19-.69.36-1.05.52-.15 1.64-.52 3.1-1.13 4.33h4.36c-.61-1.23-.98-2.69-1.13-4.33m-.54-2.53c-.31-.18-.7-.18-1.01 0-1.38.8-2.86 1.41-4.51 1.69l.85-1.27c.22-.33.22-.76.01-1.09s-.61-.51-1-.45c-.83.13-1.66.15-2.49-.04.51-.35.99-.79 1.43-1.36.23-.29.28-.69.12-1.03s-.49-.56-.86-.58c-.96-.05-1.88-.22-2.73-.61 1.56-.57 3.02-1.43 4.36-2.65a1.001 1.001 0 0 0-.72-1.74c-.74.03-1.41-.06-1.97-.35 1.31-.36 2.53-.98 3.64-1.86.3-.24.44-.64.35-1.02a.99.99 0 0 0-.78-.74c-.84-.17-1.64-.4-2.33-.78 1.52-.85 2.83-2.09 3.95-3.66.23-.32.25-.75.04-1.09a1 1 0 0 0-.98-.48c-.68.08-1.34.09-1.97-.09 1.34-.95 2.61-2.01 3.8-3.21.29-.29.37-.73.2-1.11s-.55-.61-.96-.6c-.42.02-.82 0-1.18-.07 1.54-1.2 2.95-2.6 4.22-4.24 1.26 1.64 2.68 3.04 4.22 4.24-.35.07-.75.08-1.17.07-.41-.02-.79.22-.96.6-.17.37-.09.81.2 1.11 1.19 1.21 2.47 2.26 3.8 3.21-.63.18-1.29.18-1.97.09a1.002 1.002 0 0 0-.94 1.57c1.11 1.57 2.42 2.81 3.95 3.66-.69.38-1.48.61-2.33.78-.38.07-.69.36-.78.74s.04.78.35 1.02c1.11.89 2.33 1.5 3.64 1.86-.56.29-1.23.39-1.97.35a1.001 1.001 0 0 0-.72 1.74c1.33 1.22 2.79 2.08 4.36 2.65-.85.39-1.77.56-2.73.61-.37.02-.71.24-.86.58-.16.34-.11.74.12 1.03.44.56.92 1 1.43 1.36-.83.19-1.66.17-2.49.04a1.002 1.002 0 0 0-.99 1.54l.85 1.27c-1.65-.28-3.13-.88-4.51-1.69ZM22.3 29.3l-2 2c-.39.39-.39 1.02 0 1.42.39.39 1.02.39 1.42 0l2-2c.39-.39.39-1.02 0-1.42-.39-.39-1.02-.39-1.42 0m5.16-5.19-2-1a.99.99 0 0 0-1.34.45.99.99 0 0 0 .45 1.34l2 1a.99.99 0 0 0 1.34-.45.99.99 0 0 0-.45-1.34m-5.74-2.4 2-2c.39-.39.39-1.02 0-1.42-.39-.39-1.02-.39-1.42 0l-2 2c-.39.39-.39 1.02 0 1.42.39.39 1.02.39 1.42 0m1.58-7 1 1c.39.39 1.02.39 1.42 0 .39-.39.39-1.02 0-1.42l-1-1c-.39-.39-1.02-.39-1.42 0-.39.39-.39 1.02 0 1.42"/></svg>