<svg xmlns="http://www.w3.org/2000/svg" width="64" height="64" viewBox="0 0 64 64"><path fill="#fff" d="M63.876 47.45a.97.97 0 0 0-.846-.494h-9.417v-.65c0-.987-.386-1.915-1.087-2.611-.702-.696-1.629-1.104-2.611-1.067H32.909v-1.771h29.048a1.92 1.92 0 0 0 1.761-1.128 1.92 1.92 0 0 0-.176-1.926c-5.46-13.427-15.911-25.161-31.072-34.88q-.021-.014-.044-.026a1 1 0 0 0-.701-.108h-.001a.97.97 0 0 0-.585.398q-.028.04-.052.083l-.001.001a1 1 0 0 0-.117.477v38.878h-9.663c-1.319.009-2.526.68-3.19 1.735l-1.921 2.593H.97a.971.971 0 0 0-.829 1.473l5.805 9.548a6.82 6.82 0 0 0 5.791 3.257h40.527a6.81 6.81 0 0 0 5.79-3.257l5.805-9.548a.97.97 0 0 0 .017-.977m-2.082-8.798a1 1 0 0 0 .163.265H33.566c4.978-9.748 5.204-21.574.68-32.49 13.339 9.146 22.598 19.974 27.548 32.225M32.909 8.313c3.506 9.209 3.506 18.993 0 27.409zM19.715 45.458c.351-.554.95-.887 1.599-.891h28.608c.485-.035.906.175 1.238.504s.514.768.514 1.234v.65H18.607zM56.396 56.97a4.86 4.86 0 0 1-4.133 2.325H11.736a4.86 4.86 0 0 1-4.134-2.325l-4.908-8.075h58.611z"/></svg>