<svg xmlns="http://www.w3.org/2000/svg" viewBox="0 0 98 98"><path fill="#fff" d="M29.944 87.727h.594v2.003c-1.56.439-2.715 1.86-2.715 3.558 0 2.047 1.665 3.712 3.712 3.712s3.711-1.665 3.711-3.712c0-.6-.156-1.158-.41-1.66l4.288-3.9h17.991l4.288 3.9a3.66 3.66 0 0 0-.41 1.66A3.716 3.716 0 0 0 64.705 97a3.716 3.716 0 0 0 3.712-3.712c0-1.699-1.155-3.12-2.716-3.558v-2.003h.595a5.53 5.53 0 0 0 5.522-5.523V29.73a5.53 5.53 0 0 0-5.522-5.524h-5.257v-.994a3.36 3.36 0 0 0-3.355-3.354H56.56V8.486h2.755V3.565A2.57 2.57 0 0 0 56.75 1H39.49a2.57 2.57 0 0 0-2.565 2.565v4.921h2.756v11.372h-1.125a3.36 3.36 0 0 0-3.355 3.354v.994h-5.257a5.53 5.53 0 0 0-5.523 5.524v52.474a5.53 5.53 0 0 0 5.523 5.523M31.534 95a1.712 1.712 0 1 1 .002-3.422A1.712 1.712 0 0 1 31.535 95m1.958-4.852a3.7 3.7 0 0 0-.954-.416v-2.005h3.615zm32.925 3.14c0 .944-.768 1.712-1.712 1.712s-1.712-.768-1.712-1.712.769-1.711 1.712-1.711 1.712.767 1.712 1.711M63.7 89.732q-.512.143-.953.416l-2.66-2.42H63.7zM38.925 3.565c0-.312.253-.565.565-.565h17.26c.312 0 .565.253.565.565v2.921H53.19l-.904-1.843h-8.333l-.903 1.843h-4.125zm2.755 4.921h2.617l.903-1.844h5.84l.903 1.844h2.617v11.372H41.68zM37.2 23.212c0-.747.608-1.354 1.355-1.354h19.129c.747 0 1.355.607 1.355 1.354v.994H37.2zM26.422 29.73a3.527 3.527 0 0 1 3.523-3.524h36.352a3.527 3.527 0 0 1 3.522 3.524v52.474a3.527 3.527 0 0 1-3.522 3.523H29.944a3.527 3.527 0 0 1-3.523-3.523z"/><path fill="#fff" d="M32.572 36.945h31.097a3.716 3.716 0 0 0 3.711-3.712 3.716 3.716 0 0 0-3.711-3.711H32.572a3.716 3.716 0 0 0-3.712 3.711 3.716 3.716 0 0 0 3.712 3.712m0-5.424h31.097c.944 0 1.711.769 1.711 1.712s-.767 1.712-1.711 1.712H32.572c-.944 0-1.712-.768-1.712-1.712s.768-1.711 1.712-1.711m0 16.79h31.097a3.716 3.716 0 0 0 3.711-3.71 3.716 3.716 0 0 0-3.711-3.713H32.572A3.716 3.716 0 0 0 28.86 44.6a3.716 3.716 0 0 0 3.712 3.712m0-5.423h31.097a1.712 1.712 0 0 1 0 3.423H32.572c-.944 0-1.712-.767-1.712-1.71s.768-1.713 1.712-1.713m0 16.79h31.097a3.716 3.716 0 0 0 3.711-3.711 3.716 3.716 0 0 0-3.711-3.712H32.572a3.716 3.716 0 0 0-3.712 3.712 3.716 3.716 0 0 0 3.712 3.711m0-5.423h31.097a1.712 1.712 0 0 1 0 3.423H32.572c-.944 0-1.712-.767-1.712-1.711s.768-1.712 1.712-1.712m0 16.79h31.097a3.716 3.716 0 0 0 3.711-3.712 3.716 3.716 0 0 0-3.711-3.711H32.572a3.716 3.716 0 0 0-3.712 3.711 3.716 3.716 0 0 0 3.712 3.712m0-5.423h31.097a1.712 1.712 0 0 1 0 3.423H32.572c-.944 0-1.712-.768-1.712-1.712s.768-1.711 1.712-1.711m0 16.79h31.097A3.716 3.716 0 0 0 67.38 78.7a3.716 3.716 0 0 0-3.711-3.712H32.572A3.716 3.716 0 0 0 28.86 78.7a3.716 3.716 0 0 0 3.712 3.712m0-5.424h31.097a1.713 1.713 0 0 1 0 3.424H32.572c-.944 0-1.712-.769-1.712-1.712s.768-1.712 1.712-1.712m42.007-22.586h2v2h-2zm0-12h2v2h-2zm0-4h2v2h-2zm0 8h2v2h-2zm0 12h2v2h-2zm0 8h2v1.706h-2zm0-16h2v2h-2zm0 12h2v2h-2zm-54.918-20h2v2h-2zm0-4h2v2h-2zm0 24h2v2h-2zm0-4h2v2h-2zm0 8h2v1.706h-2zm0-12h2v2h-2zm0-4h2v2h-2zm0-4h2v2h-2zm57.507-35.799h2v2h-2zm4 0h2v2h-2zm-8 0h2v2h-2zm9.818 71.748h2v2h-2zm4 0h2v2h-2zm-8 0h2v2h-2zm9.17-52.034h2v2h-2zm4 0h2v2h-2zm-8 0h2v2h-2zM7.843 48.901h2v2h-2zm4.001 0h2v2h-2zm-8 0h2v2h-2zM17.539 6.486h2v2h-2zm-4 0h2v2h-2zm8 0h2v2h-2zm-4.524 75.865h2v2h-2zm-8 0h2v2h-2zm4 0h2v2h-2zm-5-54.956h2v-2.268h2.268v-2h-2.268v-2.269h-2v2.269H5.746v2h2.269zm-.931 37.471H4.815v2h2.269v2.268h2v-2.268h2.268v-2H9.084v-2.269h-2zm70.255-48.371v2.269h-2.268v2h2.268v2.268h2v-2.268h2.269v-2h-2.269v-2.269zm8.63 44.108h2v-2.269h2.268v-2h-2.268v-2.269h-2v2.269H83.7v2h2.269z"/></svg>